<svg xmlns="http://www.w3.org/2000/svg" xmlns:xlink="http://www.w3.org/1999/xlink" width="50" zoomAndPan="magnify" viewBox="0 0 37.5 37.499999" height="50" preserveAspectRatio="xMidYMid meet" version="1.2"><defs><clipPath id="af1aa51e95"><path d="M 6.328125 6.328125 L 30.753906 6.328125 L 30.753906 30.753906 L 6.328125 30.753906 Z M 6.328125 6.328125 "/></clipPath></defs><g id="614f8007a2"><g clip-rule="nonzero" clip-path="url(#af1aa51e95)"><path style=" stroke:none;fill-rule:nonzero;fill:#ffffff;fill-opacity:1;" d="M 26.867188 25.328125 C 25.875 24.632812 24.742188 24.070312 23.492188 23.660156 C 23.777344 22.257812 23.945312 20.730469 23.980469 19.148438 L 29.285156 19.148438 C 29.144531 21.484375 28.261719 23.621094 26.867188 25.328125 Z M 21.414062 28.902344 C 21.824219 28.351562 22.195312 27.675781 22.527344 26.886719 C 22.796875 26.242188 23.03125 25.539062 23.230469 24.789062 C 24.269531 25.140625 25.230469 25.609375 26.082031 26.1875 C 24.796875 27.457031 23.199219 28.402344 21.414062 28.902344 Z M 10.917969 26.1875 C 11.769531 25.609375 12.730469 25.140625 13.769531 24.789062 C 13.96875 25.539062 14.203125 26.242188 14.472656 26.886719 C 14.800781 27.675781 15.175781 28.351562 15.582031 28.902344 C 13.800781 28.402344 12.199219 27.457031 10.917969 26.1875 Z M 7.714844 19.148438 L 13.019531 19.148438 C 13.054688 20.730469 13.222656 22.257812 13.507812 23.660156 C 12.257812 24.070312 11.125 24.632812 10.132812 25.328125 C 8.738281 23.621094 7.855469 21.484375 7.714844 19.148438 Z M 10.167969 11.628906 C 11.15625 12.316406 12.28125 12.867188 13.519531 13.273438 C 13.230469 14.671875 13.0625 16.199219 13.023438 17.78125 L 7.71875 17.78125 C 7.871094 15.453125 8.765625 13.324219 10.167969 11.628906 Z M 15.582031 8.09375 C 15.175781 8.648438 14.800781 9.324219 14.472656 10.113281 C 14.210938 10.738281 13.980469 11.421875 13.785156 12.148438 C 12.757812 11.800781 11.804688 11.339844 10.957031 10.769531 C 12.234375 9.523438 13.820312 8.589844 15.582031 8.09375 Z M 26.042969 10.769531 C 25.195312 11.339844 24.242188 11.800781 23.210938 12.148438 C 23.019531 11.421875 22.789062 10.738281 22.527344 10.113281 C 22.195312 9.324219 21.824219 8.648438 21.414062 8.09375 C 23.179688 8.589844 24.765625 9.523438 26.042969 10.769531 Z M 19.183594 17.78125 L 19.183594 14.039062 C 20.199219 13.996094 21.195312 13.863281 22.160156 13.644531 C 22.417969 14.925781 22.570312 16.324219 22.609375 17.78125 Z M 22.171875 23.292969 C 21.207031 23.066406 20.207031 22.933594 19.183594 22.894531 L 19.183594 19.148438 L 22.613281 19.148438 C 22.578125 20.605469 22.425781 22.007812 22.171875 23.292969 Z M 19.882812 28.605469 C 19.652344 28.839844 19.417969 29.015625 19.183594 29.132812 L 19.183594 24.050781 C 20.121094 24.089844 21.039062 24.214844 21.914062 24.417969 C 21.730469 25.113281 21.515625 25.765625 21.265625 26.359375 C 20.863281 27.320312 20.386719 28.09375 19.882812 28.605469 Z M 17.816406 24.050781 L 17.816406 29.132812 C 17.582031 29.015625 17.347656 28.839844 17.117188 28.605469 C 16.613281 28.09375 16.136719 27.320312 15.734375 26.359375 C 15.484375 25.765625 15.269531 25.113281 15.085938 24.417969 C 15.960938 24.214844 16.878906 24.089844 17.816406 24.050781 Z M 17.816406 19.148438 L 17.816406 22.894531 C 16.792969 22.933594 15.792969 23.066406 14.828125 23.292969 C 14.574219 22.007812 14.421875 20.605469 14.386719 19.148438 Z M 14.390625 17.78125 C 14.425781 16.324219 14.582031 14.925781 14.839844 13.644531 C 15.804688 13.863281 16.796875 13.996094 17.816406 14.039062 L 17.816406 17.78125 Z M 17.117188 8.394531 C 17.347656 8.160156 17.582031 7.984375 17.816406 7.867188 L 17.816406 12.882812 C 16.882812 12.839844 15.972656 12.71875 15.101562 12.519531 C 15.28125 11.847656 15.492188 11.214844 15.734375 10.640625 C 16.136719 9.679688 16.613281 8.902344 17.117188 8.394531 Z M 19.183594 7.867188 C 19.417969 7.984375 19.652344 8.160156 19.882812 8.394531 C 20.386719 8.902344 20.863281 9.679688 21.265625 10.640625 C 21.507812 11.214844 21.71875 11.847656 21.894531 12.519531 C 21.027344 12.71875 20.117188 12.839844 19.183594 12.882812 Z M 29.28125 17.78125 L 23.976562 17.78125 C 23.9375 16.199219 23.765625 14.671875 23.476562 13.273438 C 24.71875 12.867188 25.84375 12.316406 26.832031 11.628906 C 28.234375 13.324219 29.125 15.453125 29.28125 17.78125 Z M 29.714844 13.761719 C 29.257812 12.679688 28.652344 11.679688 27.910156 10.777344 C 27.664062 10.480469 27.40625 10.195312 27.132812 9.921875 C 27.125 9.910156 27.117188 9.902344 27.105469 9.894531 C 25.988281 8.777344 24.6875 7.898438 23.238281 7.285156 C 21.738281 6.648438 20.140625 6.328125 18.5 6.328125 C 16.855469 6.328125 15.261719 6.648438 13.761719 7.285156 C 12.3125 7.898438 11.011719 8.777344 9.894531 9.894531 C 9.882812 9.902344 9.875 9.910156 9.863281 9.921875 C 9.59375 10.195312 9.332031 10.480469 9.089844 10.777344 C 8.347656 11.679688 7.742188 12.679688 7.285156 13.761719 C 6.648438 15.261719 6.328125 16.855469 6.328125 18.5 C 6.328125 20.144531 6.648438 21.738281 7.285156 23.238281 C 7.734375 24.304688 8.332031 25.289062 9.058594 26.183594 C 9.300781 26.480469 9.558594 26.765625 9.828125 27.042969 C 9.851562 27.0625 9.871094 27.085938 9.894531 27.105469 C 11.011719 28.222656 12.3125 29.101562 13.761719 29.714844 C 15.261719 30.351562 16.855469 30.671875 18.5 30.671875 C 20.140625 30.671875 21.738281 30.351562 23.238281 29.714844 C 24.6875 29.101562 25.988281 28.222656 27.105469 27.105469 C 27.128906 27.085938 27.148438 27.0625 27.167969 27.042969 C 27.441406 26.765625 27.699219 26.480469 27.941406 26.183594 C 28.667969 25.289062 29.265625 24.304688 29.714844 23.238281 C 30.351562 21.738281 30.671875 20.144531 30.671875 18.5 C 30.671875 16.855469 30.351562 15.261719 29.714844 13.761719 "/></g></g></svg>